<svg width="20" height="20" viewBox="0 0 24 24" fill="none" xmlns="http://www.w3.org/2000/svg">
<path d="M8.07136 12.6325C4.96261 10.3075 2.74511 7.75 1.53386 6.3125C1.15886 5.8675 1.03636 5.54125 0.962611 4.9675C0.710111 3.0025 0.583861 2.02 1.16011 1.385C1.73636 0.75 2.75511 0.75 4.79261 0.75H19.2076C21.2451 0.75 22.2639 0.75 22.8401 1.38375C23.4164 2.01875 23.2901 3.00125 23.0376 4.96625C22.9626 5.54 22.8401 5.86625 22.4664 6.31125C21.2539 7.75125 19.0326 10.3137 15.9164 12.6425C15.7723 12.7546 15.6531 12.8956 15.5666 13.0564C15.4801 13.2172 15.4281 13.3942 15.4139 13.5762C15.1051 16.99 14.8201 18.86 14.6426 19.805C14.3564 21.3325 12.1926 22.2513 11.0326 23.07C10.3426 23.5575 9.50511 22.9775 9.41636 22.2225C9.08445 19.3456 8.80357 16.4631 8.57386 13.5762C8.56102 13.3925 8.50964 13.2135 8.42307 13.0509C8.33649 12.8883 8.21666 12.7457 8.07136 12.6325Z" stroke="black" stroke-width="1.5" stroke-linecap="round" stroke-linejoin="round"/>
</svg>
