<svg  viewBox="0 0 24 25" fill="none" xmlns="http://www.w3.org/2000/svg">
<path d="M6 9.10715C6 8.81167 6.0582 8.51909 6.17127 8.24611C6.28434 7.97313 6.45008 7.72509 6.65901 7.51616C6.86794 7.30722 7.11598 7.14149 7.38896 7.02842C7.66194 6.91534 7.95453 6.85715 8.25 6.85715C8.54547 6.85715 8.83806 6.91534 9.11104 7.02842C9.38402 7.14149 9.63206 7.30722 9.84099 7.51616C10.0499 7.72509 10.2157 7.97313 10.3287 8.24611C10.4418 8.51909 10.5 8.81167 10.5 9.10715C10.5 9.70388 10.2629 10.2762 9.84099 10.6981C9.41903 11.1201 8.84674 11.3571 8.25 11.3571C7.65326 11.3571 7.08097 11.1201 6.65901 10.6981C6.23705 10.2762 6 9.70388 6 9.10715ZM8.25 5.35715C7.25544 5.35715 6.30161 5.75224 5.59835 6.4555C4.89509 7.15876 4.5 8.11259 4.5 9.10715C4.5 10.1017 4.89509 11.0555 5.59835 11.7588C6.30161 12.4621 7.25544 12.8571 8.25 12.8571C9.24456 12.8571 10.1984 12.4621 10.9017 11.7588C11.6049 11.0555 12 10.1017 12 9.10715C12 8.11259 11.6049 7.15876 10.9017 6.4555C10.1984 5.75224 9.24456 5.35715 8.25 5.35715ZM15.75 9.85715C15.75 9.45932 15.908 9.07779 16.1893 8.79649C16.4706 8.51518 16.8522 8.35715 17.25 8.35715C17.6478 8.35715 18.0294 8.51518 18.3107 8.79649C18.592 9.07779 18.75 9.45932 18.75 9.85715C18.75 10.255 18.592 10.6365 18.3107 10.9178C18.0294 11.1991 17.6478 11.3571 17.25 11.3571C16.8522 11.3571 16.4706 11.1991 16.1893 10.9178C15.908 10.6365 15.75 10.255 15.75 9.85715ZM17.25 6.85715C16.4544 6.85715 15.6913 7.17322 15.1287 7.73583C14.5661 8.29844 14.25 9.0615 14.25 9.85715C14.25 10.6528 14.5661 11.4159 15.1287 11.9785C15.6913 12.5411 16.4544 12.8571 17.25 12.8571C18.0456 12.8571 18.8087 12.5411 19.3713 11.9785C19.9339 11.4159 20.25 10.6528 20.25 9.85715C20.25 9.0615 19.9339 8.29844 19.3713 7.73583C18.8087 7.17322 18.0456 6.85715 17.25 6.85715ZM2.25 16.6071C2.25 16.0104 2.48705 15.4381 2.90901 15.0162C3.33097 14.5942 3.90326 14.3571 4.5 14.3571H12C12.5967 14.3571 13.169 14.5942 13.591 15.0162C14.0129 15.4381 14.25 16.0104 14.25 16.6071V16.7751C14.2497 16.8439 14.2447 16.9126 14.235 16.9806C14.1497 17.7079 13.8791 18.401 13.449 18.9936C12.6285 20.1261 11.0685 21.1071 8.25 21.1071C5.4315 21.1071 3.873 20.1261 3.0495 18.9936C2.61996 18.4009 2.34984 17.7077 2.265 16.9806C2.25765 16.9123 2.25265 16.8438 2.25 16.7751V16.6071ZM3.75 16.7421V16.7526L3.756 16.8261C3.8139 17.2905 3.98831 17.7328 4.263 18.1116C4.752 18.7836 5.817 19.6071 8.25 19.6071C10.683 19.6071 11.748 18.7836 12.237 18.1116C12.5117 17.7328 12.6861 17.2905 12.744 16.8261L12.75 16.7511V16.6071C12.75 16.4082 12.671 16.2175 12.5303 16.0768C12.3897 15.9362 12.1989 15.8571 12 15.8571H4.5C4.30109 15.8571 4.11032 15.9362 3.96967 16.0768C3.82902 16.2175 3.75 16.4082 3.75 16.6071V16.7421ZM17.25 19.6071C16.368 19.6071 15.645 19.4721 15.06 19.2501C15.2982 18.8086 15.4802 18.339 15.6015 17.8521C16.0035 18.0036 16.5375 18.1071 17.25 18.1071C18.9285 18.1071 19.617 17.5341 19.92 17.1081C20.0985 16.8604 20.211 16.5714 20.247 16.2681L20.25 16.2261C20.2484 16.1277 20.2082 16.0339 20.1381 15.9649C20.0679 15.8958 19.9734 15.8571 19.875 15.8571H15.675C15.5638 15.3134 15.3332 14.801 15 14.3571H19.875C20.91 14.3571 21.75 15.1971 21.75 16.2321V16.2576C21.749 16.3123 21.745 16.3669 21.738 16.4211C21.6761 16.9837 21.4705 17.5209 21.141 17.9811C20.508 18.8676 19.3215 19.6071 17.25 19.6071Z" />
</svg>
